<?xml version="1.0" encoding="utf-8"?>
<!-- Generator: Adobe Illustrator 22.0.0, SVG Export Plug-In . SVG Version: 6.00 Build 0)  -->
<svg version="1.1" id="Layer_1" xmlns="http://www.w3.org/2000/svg" xmlns:xlink="http://www.w3.org/1999/xlink" x="0px" y="0px"
	 viewBox="0 0 600 350" style="enable-background:new 0 0 600 350;" xml:space="preserve">
<style type="text/css">
	.st0{opacity:0;fill:none;}
	.st1{fill-rule:evenodd;clip-rule:evenodd;fill:#E31937;}
	.st2{fill:#231F20;}
	.st3{fill:#939598;}
	.st4{fill:#58595B;}
</style>
<g>
	<rect x="125" y="-125" transform="matrix(-1.836970e-16 1 -1 -1.836970e-16 475 -125)" class="st0" width="350" height="600"/>
	<g>
		<polygon class="st1" points="119.3,38.9 47.3,185 192.6,185 		"/>
		<g>
			<g>
				<path class="st2" d="M78.7,311.1h-6.9l-2.7-7.1H56.5l-2.6,7.1h-6.7l12.2-31.4h6.7L78.7,311.1z M67.1,298.7L62.7,287l-4.2,11.7
					H67.1z"/>
				<path class="st2" d="M92.7,279.7h11.6c2.6,0,4.6,0.2,6,0.6c1.8,0.5,3.4,1.5,4.7,2.9c1.3,1.4,2.3,3.1,3,5.1c0.7,2,1,4.5,1,7.4
					c0,2.6-0.3,4.8-1,6.7c-0.8,2.3-1.9,4.1-3.4,5.6c-1.1,1.1-2.6,1.9-4.5,2.5c-1.4,0.4-3.3,0.7-5.6,0.7H92.7V279.7z M99,285v20.8
					h4.7c1.8,0,3.1-0.1,3.8-0.3c1-0.3,1.9-0.7,2.6-1.3c0.7-0.6,1.2-1.6,1.7-3c0.4-1.4,0.6-3.3,0.6-5.8s-0.2-4.3-0.6-5.6
					c-0.4-1.3-1-2.3-1.8-3c-0.8-0.7-1.8-1.2-2.9-1.5c-0.9-0.2-2.6-0.3-5.2-0.3H99z"/>
				<path class="st2" d="M137.6,303.9l6,1c-0.8,2.2-2,3.9-3.7,5c-1.7,1.2-3.7,1.7-6.2,1.7c-4,0-6.9-1.3-8.8-3.9
					c-1.5-2.1-2.3-4.7-2.3-7.8c0-3.8,1-6.7,3-8.9c2-2.1,4.5-3.2,7.5-3.2c3.4,0,6.1,1.1,8,3.4s2.9,5.7,2.8,10.3h-15.1
					c0,1.8,0.5,3.2,1.5,4.2c0.9,1,2.1,1.5,3.5,1.5c0.9,0,1.7-0.3,2.4-0.8C136.7,305.8,137.2,305,137.6,303.9z M137.9,297.8
					c0-1.7-0.5-3.1-1.4-4c-0.9-0.9-1.9-1.4-3.1-1.4c-1.3,0-2.4,0.5-3.3,1.4c-0.9,1-1.3,2.3-1.3,3.9H137.9z"/>
				<path class="st2" d="M148.8,311.1v-31.4h6v31.4H148.8z"/>
				<path class="st2" d="M171.4,288.3v4.8h-4.1v9.2c0,1.9,0,2.9,0.1,3.2c0.1,0.3,0.3,0.6,0.5,0.8c0.3,0.2,0.6,0.3,1,0.3
					c0.6,0,1.4-0.2,2.4-0.6l0.5,4.7c-1.4,0.6-3,0.9-4.8,0.9c-1.1,0-2.1-0.2-2.9-0.5c-0.9-0.4-1.5-0.8-1.9-1.4
					c-0.4-0.6-0.7-1.4-0.8-2.4c-0.1-0.7-0.2-2.1-0.2-4.2v-9.9h-2.8v-4.8h2.8v-4.5l6-3.5v8H171.4z"/>
				<path class="st2" d="M180.1,295.3l-5.5-1c0.6-2.2,1.7-3.8,3.2-4.9s3.7-1.6,6.7-1.6c2.7,0,4.7,0.3,6,1c1.3,0.6,2.2,1.4,2.8,2.4
					c0.5,1,0.8,2.8,0.8,5.4l-0.1,7c0,2,0.1,3.5,0.3,4.4c0.2,1,0.6,2,1.1,3.1h-6c-0.2-0.4-0.4-1-0.6-1.8c-0.1-0.4-0.2-0.6-0.2-0.7
					c-1,1-2.1,1.8-3.3,2.3c-1.2,0.5-2.4,0.8-3.8,0.8c-2.3,0-4.2-0.6-5.5-1.9s-2-2.9-2-4.8c0-1.3,0.3-2.4,0.9-3.4
					c0.6-1,1.5-1.8,2.6-2.3c1.1-0.5,2.7-1,4.8-1.4c2.8-0.5,4.8-1,5.9-1.5v-0.6c0-1.2-0.3-2-0.9-2.5c-0.6-0.5-1.7-0.7-3.2-0.7
					c-1.1,0-1.9,0.2-2.5,0.6C181,293.5,180.5,294.2,180.1,295.3z M188.2,300.2c-0.8,0.3-2,0.6-3.7,0.9c-1.7,0.4-2.8,0.7-3.3,1.1
					c-0.8,0.6-1.2,1.3-1.2,2.1c0,0.8,0.3,1.6,0.9,2.2s1.4,0.9,2.4,0.9c1.1,0,2.1-0.4,3.1-1.1c0.7-0.5,1.2-1.2,1.4-2
					c0.2-0.5,0.2-1.5,0.2-2.9V300.2z"/>
				<path class="st2" d="M226.9,299.5v-5.3h13.7v12.5c-1.3,1.3-3.3,2.4-5.8,3.4c-2.5,1-5.1,1.5-7.7,1.5c-3.3,0-6.2-0.7-8.6-2.1
					s-4.3-3.4-5.5-5.9s-1.8-5.4-1.8-8.4c0-3.3,0.7-6.2,2.1-8.7c1.4-2.5,3.4-4.5,6-5.9c2-1,4.5-1.6,7.5-1.6c3.9,0,6.9,0.8,9.1,2.5
					c2.2,1.6,3.6,3.9,4.2,6.8l-6.3,1.2c-0.4-1.5-1.3-2.8-2.5-3.7c-1.2-0.9-2.7-1.3-4.6-1.3c-2.8,0-5,0.9-6.6,2.6s-2.5,4.4-2.5,7.8
					c0,3.7,0.8,6.5,2.5,8.4c1.7,1.9,3.8,2.8,6.5,2.8c1.3,0,2.7-0.3,4-0.8c1.3-0.5,2.5-1.2,3.4-1.9v-4H226.9z"/>
				<path class="st2" d="M252.2,311.1h-6v-22.8h5.6v3.2c1-1.5,1.8-2.5,2.6-3c0.8-0.5,1.6-0.7,2.6-0.7c1.4,0,2.7,0.4,4,1.1l-1.9,5.3
					c-1-0.7-2-1-2.8-1c-0.8,0-1.6,0.2-2.1,0.7c-0.6,0.5-1.1,1.3-1.4,2.5s-0.5,3.8-0.5,7.6V311.1z"/>
				<path class="st2" d="M262.1,299.4c0-2,0.5-3.9,1.5-5.8c1-1.9,2.4-3.3,4.2-4.3c1.8-1,3.8-1.5,6.1-1.5c3.4,0,6.3,1.1,8.5,3.4
					c2.2,2.2,3.3,5.1,3.3,8.5c0,3.4-1.1,6.3-3.3,8.6c-2.2,2.3-5,3.4-8.4,3.4c-2.1,0-4.1-0.5-6-1.4s-3.3-2.3-4.3-4.1
					C262.6,304.2,262.1,302,262.1,299.4z M268.3,299.7c0,2.3,0.5,4,1.6,5.2c1.1,1.2,2.4,1.8,4,1.8s2.9-0.6,4-1.8
					c1.1-1.2,1.6-2.9,1.6-5.2c0-2.2-0.5-3.9-1.6-5.1c-1.1-1.2-2.4-1.8-4-1.8s-2.9,0.6-4,1.8C268.8,295.7,268.3,297.5,268.3,299.7z"
					/>
				<path class="st2" d="M305.3,311.1v-3.4c-0.8,1.2-1.9,2.2-3.3,2.9c-1.4,0.7-2.8,1.1-4.3,1.1c-1.5,0-2.9-0.3-4.1-1
					s-2.1-1.6-2.6-2.8s-0.8-2.9-0.8-5v-14.4h6v10.5c0,3.2,0.1,5.2,0.3,5.9c0.2,0.7,0.6,1.3,1.2,1.7c0.6,0.4,1.3,0.6,2.2,0.6
					c1,0,2-0.3,2.8-0.8s1.4-1.3,1.7-2.1c0.3-0.8,0.5-2.9,0.5-6.1v-9.6h6v22.8H305.3z"/>
				<path class="st2" d="M317,288.3h5.6v3.3c0.7-1.1,1.7-2.1,3-2.8c1.2-0.7,2.6-1.1,4.1-1.1c2.6,0,4.9,1,6.7,3.1
					c1.8,2.1,2.8,5,2.8,8.7c0,3.8-0.9,6.8-2.8,8.9s-4.1,3.2-6.8,3.2c-1.3,0-2.4-0.3-3.4-0.8c-1-0.5-2.1-1.4-3.2-2.6v11.5h-6V288.3z
					 M323,299.3c0,2.6,0.5,4.5,1.5,5.7c1,1.2,2.3,1.8,3.7,1.8c1.4,0,2.6-0.6,3.5-1.7c0.9-1.1,1.4-3,1.4-5.5c0-2.4-0.5-4.2-1.4-5.3
					s-2.1-1.7-3.6-1.7c-1.5,0-2.7,0.6-3.7,1.7C323.5,295.4,323,297.1,323,299.3z"/>
				<path class="st2" d="M376.4,299.5l6.2,2c-0.9,3.4-2.5,6-4.7,7.6c-2.2,1.7-5,2.5-8.4,2.5c-4.2,0-7.6-1.4-10.3-4.3
					c-2.7-2.8-4-6.7-4-11.7c0-5.2,1.4-9.3,4.1-12.2c2.7-2.9,6.3-4.3,10.7-4.3c3.8,0,7,1.1,9.4,3.4c1.4,1.3,2.5,3.3,3.2,5.8l-6.3,1.5
					c-0.4-1.6-1.2-2.9-2.3-3.9c-1.2-0.9-2.6-1.4-4.3-1.4c-2.3,0-4.2,0.8-5.7,2.5c-1.5,1.7-2.2,4.4-2.2,8.1c0,4,0.7,6.8,2.1,8.5
					c1.4,1.7,3.3,2.5,5.6,2.5c1.7,0,3.1-0.5,4.4-1.6S375.8,301.8,376.4,299.5z"/>
				<path class="st2" d="M386.5,299.4c0-2,0.5-3.9,1.5-5.8c1-1.9,2.4-3.3,4.2-4.3c1.8-1,3.8-1.5,6.1-1.5c3.4,0,6.3,1.1,8.5,3.4
					c2.2,2.2,3.3,5.1,3.3,8.5c0,3.4-1.1,6.3-3.3,8.6c-2.2,2.3-5,3.4-8.4,3.4c-2.1,0-4.1-0.5-6-1.4s-3.3-2.3-4.3-4.1
					C387,304.2,386.5,302,386.5,299.4z M392.7,299.7c0,2.3,0.5,4,1.6,5.2c1.1,1.2,2.4,1.8,4,1.8c1.6,0,2.9-0.6,4-1.8
					c1.1-1.2,1.6-2.9,1.6-5.2c0-2.2-0.5-3.9-1.6-5.1c-1.1-1.2-2.4-1.8-4-1.8c-1.6,0-2.9,0.6-4,1.8
					C393.2,295.7,392.7,297.5,392.7,299.7z"/>
				<path class="st2" d="M414.3,288.3h5.6v3.1c2-2.4,4.4-3.6,7.1-3.6c1.5,0,2.7,0.3,3.8,0.9s2,1.5,2.6,2.7c1-1.2,2.1-2.1,3.2-2.7
					c1.2-0.6,2.4-0.9,3.7-0.9c1.7,0,3.1,0.3,4.2,1c1.2,0.7,2,1.7,2.6,3c0.4,1,0.6,2.5,0.6,4.7v14.6h-6v-13c0-2.3-0.2-3.7-0.6-4.4
					c-0.6-0.9-1.4-1.3-2.6-1.3c-0.8,0-1.6,0.3-2.4,0.8c-0.7,0.5-1.3,1.3-1.6,2.3c-0.3,1-0.5,2.6-0.5,4.7v10.9h-6v-12.5
					c0-2.2-0.1-3.6-0.3-4.3s-0.6-1.1-1-1.4c-0.5-0.3-1.1-0.5-1.8-0.5c-0.9,0-1.8,0.3-2.5,0.8c-0.7,0.5-1.3,1.2-1.6,2.2
					s-0.5,2.5-0.5,4.7v11.1h-6V288.3z"/>
				<path class="st2" d="M453.6,288.3h5.6v3.3c0.7-1.1,1.7-2.1,3-2.8c1.2-0.7,2.6-1.1,4.1-1.1c2.6,0,4.9,1,6.7,3.1
					c1.8,2.1,2.8,5,2.8,8.7c0,3.8-0.9,6.8-2.8,8.9c-1.9,2.1-4.1,3.2-6.8,3.2c-1.3,0-2.4-0.3-3.4-0.8c-1-0.5-2.1-1.4-3.2-2.6v11.5h-6
					V288.3z M459.6,299.3c0,2.6,0.5,4.5,1.5,5.7c1,1.2,2.3,1.8,3.7,1.8c1.4,0,2.6-0.6,3.5-1.7c0.9-1.1,1.4-3,1.4-5.5
					c0-2.4-0.5-4.2-1.4-5.3c-1-1.2-2.1-1.7-3.6-1.7c-1.5,0-2.7,0.6-3.7,1.7C460.1,295.4,459.6,297.1,459.6,299.3z"/>
				<path class="st2" d="M485.2,295.3l-5.5-1c0.6-2.2,1.7-3.8,3.2-4.9c1.5-1.1,3.7-1.6,6.7-1.6c2.7,0,4.7,0.3,6,1
					c1.3,0.6,2.2,1.4,2.8,2.4c0.5,1,0.8,2.8,0.8,5.4l-0.1,7c0,2,0.1,3.5,0.3,4.4c0.2,1,0.6,2,1.1,3.1h-6c-0.2-0.4-0.4-1-0.6-1.8
					c-0.1-0.4-0.2-0.6-0.2-0.7c-1,1-2.1,1.8-3.3,2.3c-1.2,0.5-2.4,0.8-3.8,0.8c-2.3,0-4.2-0.6-5.5-1.9c-1.3-1.3-2-2.9-2-4.8
					c0-1.3,0.3-2.4,0.9-3.4c0.6-1,1.5-1.8,2.6-2.3c1.1-0.5,2.7-1,4.8-1.4c2.8-0.5,4.8-1,5.9-1.5v-0.6c0-1.2-0.3-2-0.9-2.5
					c-0.6-0.5-1.7-0.7-3.2-0.7c-1.1,0-1.9,0.2-2.5,0.6C486,293.5,485.5,294.2,485.2,295.3z M493.2,300.2c-0.8,0.3-2,0.6-3.7,0.9
					c-1.7,0.4-2.8,0.7-3.3,1.1c-0.8,0.6-1.2,1.3-1.2,2.1c0,0.8,0.3,1.6,0.9,2.2s1.4,0.9,2.4,0.9c1.1,0,2.1-0.4,3.1-1.1
					c0.7-0.5,1.2-1.2,1.4-2c0.2-0.5,0.2-1.5,0.2-2.9V300.2z"/>
				<path class="st2" d="M525.8,311.1h-6v-11.6c0-2.5-0.1-4-0.4-4.8c-0.3-0.7-0.7-1.3-1.3-1.7c-0.6-0.4-1.3-0.6-2.1-0.6
					c-1,0-2,0.3-2.8,0.9s-1.4,1.3-1.7,2.3s-0.5,2.7-0.5,5.2v10.3h-6v-22.8h5.6v3.3c2-2.6,4.5-3.9,7.5-3.9c1.3,0,2.5,0.2,3.6,0.7
					c1.1,0.5,1.9,1.1,2.5,1.8c0.6,0.7,1,1.6,1.2,2.5c0.2,0.9,0.3,2.3,0.3,4.1V311.1z"/>
				<path class="st2" d="M529.1,288.3h6.4l5.4,16.2l5.3-16.2h6.2l-8,21.9l-1.4,4c-0.5,1.3-1,2.3-1.5,3s-1,1.3-1.6,1.7
					c-0.6,0.4-1.4,0.8-2.3,1s-1.9,0.4-3.1,0.4c-1.2,0-2.3-0.1-3.4-0.4l-0.5-4.7c0.9,0.2,1.8,0.3,2.6,0.3c1.4,0,2.4-0.4,3.1-1.2
					c0.7-0.8,1.2-1.9,1.5-3.1L529.1,288.3z"/>
			</g>
			<g>
				<path class="st3" d="M56.5,237.7c-3.5,0-6-1.2-7.8-3.4c-2.6-3.2-1.7-7.4-0.9-11.9c0.8-4.5,1.4-8.8,5.1-11.9
					c2.6-2.2,5.5-3.4,9-3.4c5.7,0,9.8,3.2,9.7,9.8h-7.5c-0.2-1.7-0.8-3.2-3.3-3.2c-1.4,0-2.5,0.6-3.1,1.3c-0.8,0.9-1.5,2-2.5,7.4
					c-1,5.5-0.7,6.6-0.2,7.4c0.4,0.7,1.3,1.3,2.7,1.3c2.5,0,3.7-1.5,4.4-3.2h7.5C67.4,234.6,62.2,237.7,56.5,237.7z"/>
				<path class="st3" d="M133.7,234.3c-2.6,2.2-5.3,3.4-9,3.4c-3.7,0-6-1.2-7.8-3.4c-2.6-3.2-1.7-7.4-0.9-11.9
					c0.8-4.5,1.4-8.8,5.2-11.9c2.6-2.2,5.3-3.4,9-3.4c3.7,0,6,1.2,7.8,3.4c2.6,3.2,1.7,7.4,1,11.9
					C138,226.9,137.4,231.2,133.7,234.3z M131.6,215c-0.4-0.7-1.4-1.3-2.7-1.3c-1.4,0-2.5,0.6-3.2,1.3c-0.8,0.9-1.4,1.9-2.4,7.4
					c-1,5.5-0.7,6.5-0.2,7.4c0.4,0.7,1.4,1.3,2.7,1.3c1.4,0,2.5-0.6,3.2-1.3c0.8-0.9,1.4-1.9,2.4-7.4
					C132.4,216.9,132.1,215.9,131.6,215z"/>
				<path class="st3" d="M200.7,237.5l-7-15.1l-2.7,15.1h-7.4l5.3-30.1h6.5l7,15.1l2.7-15.1h7.4l-5.3,30.1H200.7z"/>
				<path class="st3" d="M272.7,213.9l-4.1,23.5h-7.4l4.1-23.5h-7.4l1.2-6.6h22.2l-1.2,6.6H272.7z"/>
				<path class="st3" d="M337.9,237.5l-3.4-11.2H332l-2,11.2h-7.4l5.3-30.1h11.9c6.7,0,9.5,4.7,8.6,9.7c-0.7,4.1-3.7,6.7-6.3,7.9
					l4.3,12.6H337.9z M338.4,214h-4.2l-1.1,6.1h4.2c2,0,3.5-1.5,3.8-3C341.3,215.5,340.4,214,338.4,214z"/>
				<path class="st3" d="M412,234.3c-2.6,2.2-5.3,3.4-9,3.4c-3.7,0-6-1.2-7.8-3.4c-2.6-3.2-1.8-7.4-0.9-11.9
					c0.8-4.5,1.4-8.8,5.2-11.9c2.6-2.2,5.3-3.4,9-3.4c3.7,0,6,1.2,7.8,3.4c2.6,3.2,1.7,7.4,0.9,11.9
					C416.4,226.9,415.8,231.2,412,234.3z M410,215c-0.4-0.7-1.4-1.3-2.7-1.3c-1.4,0-2.5,0.6-3.2,1.3c-0.8,0.9-1.4,1.9-2.4,7.4
					c-1,5.5-0.7,6.5-0.2,7.4c0.4,0.7,1.4,1.3,2.7,1.3c1.4,0,2.5-0.6,3.2-1.3c0.8-0.9,1.4-1.9,2.4-7.4
					C410.8,216.9,410.5,215.9,410,215z"/>
				<path class="st3" d="M462,237.5l5.3-30.1h7.4l-4.1,23.5h12.7l-1.2,6.6H462z"/>
				<path class="st3" d="M537.2,237.7c-4.6,0-8.2-0.8-10.7-4l5.6-4.7c1.3,1.6,3.9,2.1,6.4,2.1c2.9,0,4.5-1,4.8-2.7
					c0.1-0.7,0.1-1.3-0.3-1.8c-0.3-0.4-0.9-0.7-1.8-0.8l-3.6-0.5c-2.6-0.4-4.5-1.3-5.6-2.7c-1.1-1.4-1.5-3.5-1-6
					c1-5.5,5.8-9.5,12.7-9.5c4.3,0,7.4,1,9.5,3.6l-5.5,4.6c-1.6-1.9-4.1-1.8-5.4-1.8c-2.6,0-3.9,1.5-4.1,2.8c-0.1,0.4,0,0.9,0.3,1.4
					c0.3,0.4,0.9,0.8,1.9,0.9l3.5,0.5c2.6,0.4,4.4,1.2,5.5,2.5c1.3,1.6,1.6,3.8,1.1,6.6C549.5,234.4,543.6,237.7,537.2,237.7z"/>
			</g>
			<g>
				<path class="st4" d="M285.6,138.6c0,22.1,10.4,34.7,29.6,34.7c11.6,0,18.4-3.5,26.4-11.4l10,8.8c-10.2,10.2-19.6,15.5-36.8,15.5
					c-26.6,0-43.9-15.9-43.9-51.5c0-32.5,15.7-51.5,41.2-51.5c26,0,41.3,18.8,41.3,48.6v6.7H285.6z M335.6,110.8
					c-3.9-9.2-12.9-15.1-23.5-15.1c-10.6,0-19.6,5.9-23.5,15.1c-2.2,5.5-2.6,8.6-3.1,16.7h53.1C338.3,119.4,337.9,116.3,335.6,110.8
					"/>
				<path class="st4" d="M395.7,185c-17.6,0-25.5-11.4-25.5-26.7V39.6h14.7v118c0,9.8,3.3,14.7,13.5,14.7h8V185H395.7z"/>
				<path class="st4" d="M448.8,185c-17.2,0-25.7-12-25.7-27V96.3h-12.7V85.1h12.7V53.7h14.7v31.5h21.5v11.2h-21.5v61.3
					c0,9.2,4.3,14.7,13.7,14.7h7.8V185H448.8z"/>
				<path class="st4" d="M537.9,185v-9.6c-8.2,8.2-15.5,10.8-29,10.8c-13.9,0-22.1-2.7-28.4-9.2c-4.9-4.9-7.6-12.5-7.6-20.4
					c0-17.6,12.3-29,34.7-29h30.2V118c0-14.7-7.4-22.1-25.7-22.1c-12.9,0-19.4,3.1-25.3,11.4l-10-9.2c9-11.6,19.2-14.9,35.5-14.9
					c27,0,40.2,11.6,40.2,33.5V185H537.9z M537.9,138.6h-28.2c-15.1,0-22.5,6.1-22.5,17.8c0,11.6,7.1,17.2,23.1,17.2
					c8.6,0,16.1-0.6,22.5-6.7c3.5-3.3,5.1-9,5.1-17.4V138.6z"/>
				<path class="st4" d="M241,53c-8.8-8.8-21.7-13.5-36.8-13.5h-74l7,13.9h64.4c11.2,0,21,2.9,28.6,10.6c10,10.4,9.6,28.8,9.6,46.6
					s0.4,39.4-9.6,49.8c-7.6,7.8-17.4,10.6-28.6,10.6h-5.5l7,13.9h1.1c15.1,0,28-4.7,36.8-13.5c15.1-15.1,14.3-40.7,14.3-60.9
					S256.1,68.1,241,53"/>
				<path class="st4" d="M563.1,71.1v13.5H561V71.1h-4.2v-1.9h10.6v1.9H563.1z M581.6,84.5V73.4l-3.7,7.3h-2l-3.7-7.3v11.1h-2.1
					V69.2h2.1l4.7,9.3l4.7-9.3h2.1v15.4H581.6z"/>
			</g>
		</g>
	</g>
</g>
</svg>
